<svg id="visual" viewBox="0 0 900 600" width="900" height="600" xmlns="http://www.w3.org/2000/svg" xmlns:xlink="http://www.w3.org/1999/xlink" version="1.1"><rect x="0" y="0" width="900" height="600" fill="#7828C8"></rect><path d="M333 0L470 0L470 86L392 86L392 171L407 171L407 257L451 257L451 343L444 343L444 429L518 429L518 514L507 514L507 600L0 600L0 514L0 514L0 429L0 429L0 343L0 343L0 257L0 257L0 171L0 171L0 86L0 86L0 0L0 0Z" fill="#f9f2ff"></path><path d="M251 0L347 0L347 86L276 86L276 171L332 171L332 257L376 257L376 343L300 343L300 429L337 429L337 514L272 514L272 600L0 600L0 514L0 514L0 429L0 429L0 343L0 343L0 257L0 257L0 171L0 171L0 86L0 86L0 0L0 0Z" fill="#7c7187"></path><path d="M169 0L143 0L143 86L95 86L95 171L214 171L214 257L117 257L117 343L175 343L175 429L182 429L182 514L190 514L190 600L0 600L0 514L0 514L0 429L0 429L0 343L0 343L0 257L0 257L0 171L0 171L0 86L0 86L0 0L0 0Z" fill="#140021"></path></svg>