<svg width="150" height="85" viewBox="0 0 150 85" fill="none" xmlns="http://www.w3.org/2000/svg">
<rect x="14" y="17.5" width="50" height="50" rx="14" fill="#7828C8"/>
<path d="M55.0105 61.3C56.1093 61.3 57 60.4093 57 59.3105V59.3105C57 58.2118 56.1093 57.3211 55.0105 57.3211H34.9895C33.8907 57.3211 33 58.2118 33 59.3105V59.3105C33 60.4093 33.8907 61.3 34.9895 61.3H55.0105ZM44.2895 50.248C45.0697 51.0241 46.3303 51.0241 47.1105 50.248L55.5912 41.8119C56.3707 41.0365 56.3782 39.7772 55.6078 38.9927L54.2042 37.5632C53.4291 36.7739 52.1606 36.7636 51.3729 37.5403L42.838 45.9558C42.0461 46.7366 42.0433 48.0136 42.8317 48.7979L44.2895 50.248ZM31.5833 37.6086C32.3659 38.3872 33.6313 38.3844 34.4105 37.6024L42.8703 29.1126C43.657 28.3232 43.6466 27.0431 42.8473 26.2665L41.4102 24.8702C40.6275 24.1097 39.3797 24.117 38.606 24.8866L30.1254 33.3226C29.3394 34.1045 29.3394 35.3766 30.1254 36.1585L31.5833 37.6086ZM22.4074 57.9252C23.1777 58.6915 24.4223 58.6915 25.1926 57.9252L48.4926 34.7479C49.2687 33.9759 49.2687 32.7199 48.4926 31.9479V31.9479C47.7223 31.1817 46.4777 31.1817 45.7074 31.9479L22.4074 55.1253C21.6313 55.8973 21.6313 57.1533 22.4074 57.9252V57.9252Z" fill="white"/>
<path d="M81.35 27.655V38.5H80.315C80.155 38.5 80.02 38.475 79.91 38.425C79.805 38.37 79.7025 38.28 79.6025 38.155L73.94 30.925C73.97 31.255 73.985 31.56 73.985 31.84V38.5H72.2075V27.655H73.265C73.35 27.655 73.4225 27.66 73.4825 27.67C73.5475 27.675 73.6025 27.69 73.6475 27.715C73.6975 27.735 73.745 27.7675 73.79 27.8125C73.835 27.8525 73.885 27.9075 73.94 27.9775L79.625 35.2375C79.61 35.0625 79.5975 34.89 79.5875 34.72C79.5775 34.55 79.5725 34.3925 79.5725 34.2475V27.655H81.35ZM90.3015 30.805L86.109 40.615C86.054 40.745 85.9815 40.8425 85.8915 40.9075C85.8065 40.9775 85.674 41.0125 85.494 41.0125H84.114L85.554 37.9225L82.4415 30.805H84.069C84.214 30.805 84.3265 30.84 84.4065 30.91C84.4915 30.98 84.554 31.06 84.594 31.15L86.229 35.14C86.284 35.275 86.329 35.41 86.364 35.545C86.404 35.68 86.4415 35.8175 86.4765 35.9575C86.5215 35.8175 86.5665 35.68 86.6115 35.545C86.6565 35.405 86.7065 35.2675 86.7615 35.1325L88.3065 31.15C88.3465 31.05 88.4115 30.9675 88.5015 30.9025C88.5965 30.8375 88.7015 30.805 88.8165 30.805H90.3015ZM95.1109 35.215C94.5759 35.24 94.1259 35.2875 93.7609 35.3575C93.3959 35.4225 93.1034 35.5075 92.8834 35.6125C92.6634 35.7175 92.5059 35.84 92.4109 35.98C92.3159 36.12 92.2684 36.2725 92.2684 36.4375C92.2684 36.7625 92.3634 36.995 92.5534 37.135C92.7484 37.275 93.0009 37.345 93.3109 37.345C93.6909 37.345 94.0184 37.2775 94.2934 37.1425C94.5734 37.0025 94.8459 36.7925 95.1109 36.5125V35.215ZM90.8659 31.8775C91.7509 31.0675 92.8159 30.6625 94.0609 30.6625C94.5109 30.6625 94.9134 30.7375 95.2684 30.8875C95.6234 31.0325 95.9234 31.2375 96.1684 31.5025C96.4134 31.7625 96.5984 32.075 96.7234 32.44C96.8534 32.805 96.9184 33.205 96.9184 33.64V38.5H96.0784C95.9034 38.5 95.7684 38.475 95.6734 38.425C95.5784 38.37 95.5034 38.2625 95.4484 38.1025L95.2834 37.5475C95.0884 37.7225 94.8984 37.8775 94.7134 38.0125C94.5284 38.1425 94.3359 38.2525 94.1359 38.3425C93.9359 38.4325 93.7209 38.5 93.4909 38.545C93.2659 38.595 93.0159 38.62 92.7409 38.62C92.4159 38.62 92.1159 38.5775 91.8409 38.4925C91.5659 38.4025 91.3284 38.27 91.1284 38.095C90.9284 37.92 90.7734 37.7025 90.6634 37.4425C90.5534 37.1825 90.4984 36.88 90.4984 36.535C90.4984 36.34 90.5309 36.1475 90.5959 35.9575C90.6609 35.7625 90.7659 35.5775 90.9109 35.4025C91.0609 35.2275 91.2534 35.0625 91.4884 34.9075C91.7234 34.7525 92.0109 34.6175 92.3509 34.5025C92.6959 34.3875 93.0959 34.295 93.5509 34.225C94.0059 34.15 94.5259 34.105 95.1109 34.09V33.64C95.1109 33.125 95.0009 32.745 94.7809 32.5C94.5609 32.25 94.2434 32.125 93.8284 32.125C93.5284 32.125 93.2784 32.16 93.0784 32.23C92.8834 32.3 92.7109 32.38 92.5609 32.47C92.4109 32.555 92.2734 32.6325 92.1484 32.7025C92.0284 32.7725 91.8934 32.8075 91.7434 32.8075C91.6134 32.8075 91.5034 32.775 91.4134 32.71C91.3234 32.64 91.2509 32.56 91.1959 32.47L90.8659 31.8775ZM105.433 30.805L101.241 40.615C101.186 40.745 101.113 40.8425 101.023 40.9075C100.938 40.9775 100.806 41.0125 100.626 41.0125H99.2458L100.686 37.9225L97.5733 30.805H99.2008C99.3458 30.805 99.4583 30.84 99.5383 30.91C99.6233 30.98 99.6858 31.06 99.7258 31.15L101.361 35.14C101.416 35.275 101.461 35.41 101.496 35.545C101.536 35.68 101.573 35.8175 101.608 35.9575C101.653 35.8175 101.698 35.68 101.743 35.545C101.788 35.405 101.838 35.2675 101.893 35.1325L103.438 31.15C103.478 31.05 103.543 30.9675 103.633 30.9025C103.728 30.8375 103.833 30.805 103.948 30.805H105.433Z" fill="#7828C8"/>
<path d="M77.9825 49.6275C77.9225 49.7325 77.8575 49.81 77.7875 49.86C77.7225 49.905 77.64 49.9275 77.54 49.9275C77.435 49.9275 77.32 49.89 77.195 49.815C77.075 49.735 76.93 49.6475 76.76 49.5525C76.59 49.4575 76.39 49.3725 76.16 49.2975C75.935 49.2175 75.6675 49.1775 75.3575 49.1775C75.0775 49.1775 74.8325 49.2125 74.6225 49.2825C74.4125 49.3475 74.235 49.44 74.09 49.56C73.95 49.68 73.845 49.825 73.775 49.995C73.705 50.16 73.67 50.3425 73.67 50.5425C73.67 50.7975 73.74 51.01 73.88 51.18C74.025 51.35 74.215 51.495 74.45 51.615C74.685 51.735 74.9525 51.8425 75.2525 51.9375C75.5525 52.0325 75.86 52.135 76.175 52.245C76.49 52.35 76.7975 52.475 77.0975 52.62C77.3975 52.76 77.665 52.94 77.9 53.16C78.135 53.375 78.3225 53.64 78.4625 53.955C78.6075 54.27 78.68 54.6525 78.68 55.1025C78.68 55.5925 78.595 56.0525 78.425 56.4825C78.26 56.9075 78.015 57.28 77.69 57.6C77.37 57.915 76.9775 58.165 76.5125 58.35C76.0475 58.53 75.515 58.62 74.915 58.62C74.57 58.62 74.23 58.585 73.895 58.515C73.56 58.45 73.2375 58.355 72.9275 58.23C72.6225 58.105 72.335 57.955 72.065 57.78C71.795 57.605 71.555 57.41 71.345 57.195L71.9375 56.2275C71.9875 56.1575 72.0525 56.1 72.1325 56.055C72.2125 56.005 72.2975 55.98 72.3875 55.98C72.5125 55.98 72.6475 56.0325 72.7925 56.1375C72.9375 56.2375 73.11 56.35 73.31 56.475C73.51 56.6 73.7425 56.715 74.0075 56.82C74.2775 56.92 74.6 56.97 74.975 56.97C75.55 56.97 75.995 56.835 76.31 56.565C76.625 56.29 76.7825 55.8975 76.7825 55.3875C76.7825 55.1025 76.71 54.87 76.565 54.69C76.425 54.51 76.2375 54.36 76.0025 54.24C75.7675 54.115 75.5 54.01 75.2 53.925C74.9 53.84 74.595 53.7475 74.285 53.6475C73.975 53.5475 73.67 53.4275 73.37 53.2875C73.07 53.1475 72.8025 52.965 72.5675 52.74C72.3325 52.515 72.1425 52.235 71.9975 51.9C71.8575 51.56 71.7875 51.1425 71.7875 50.6475C71.7875 50.2525 71.865 49.8675 72.02 49.4925C72.18 49.1175 72.41 48.785 72.71 48.495C73.01 48.205 73.38 47.9725 73.82 47.7975C74.26 47.6225 74.765 47.535 75.335 47.535C75.975 47.535 76.565 47.635 77.105 47.835C77.645 48.035 78.105 48.315 78.485 48.675L77.9825 49.6275ZM84.1099 55.215C83.5749 55.24 83.1249 55.2875 82.7599 55.3575C82.3949 55.4225 82.1024 55.5075 81.8824 55.6125C81.6624 55.7175 81.5049 55.84 81.4099 55.98C81.3149 56.12 81.2674 56.2725 81.2674 56.4375C81.2674 56.7625 81.3624 56.995 81.5524 57.135C81.7474 57.275 81.9999 57.345 82.3099 57.345C82.6899 57.345 83.0174 57.2775 83.2924 57.1425C83.5724 57.0025 83.8449 56.7925 84.1099 56.5125V55.215ZM79.8649 51.8775C80.7499 51.0675 81.8149 50.6625 83.0599 50.6625C83.5099 50.6625 83.9124 50.7375 84.2674 50.8875C84.6224 51.0325 84.9224 51.2375 85.1674 51.5025C85.4124 51.7625 85.5974 52.075 85.7224 52.44C85.8524 52.805 85.9174 53.205 85.9174 53.64V58.5H85.0774C84.9024 58.5 84.7674 58.475 84.6724 58.425C84.5774 58.37 84.5024 58.2625 84.4474 58.1025L84.2824 57.5475C84.0874 57.7225 83.8974 57.8775 83.7124 58.0125C83.5274 58.1425 83.3349 58.2525 83.1349 58.3425C82.9349 58.4325 82.7199 58.5 82.4899 58.545C82.2649 58.595 82.0149 58.62 81.7399 58.62C81.4149 58.62 81.1149 58.5775 80.8399 58.4925C80.5649 58.4025 80.3274 58.27 80.1274 58.095C79.9274 57.92 79.7724 57.7025 79.6624 57.4425C79.5524 57.1825 79.4974 56.88 79.4974 56.535C79.4974 56.34 79.5299 56.1475 79.5949 55.9575C79.6599 55.7625 79.7649 55.5775 79.9099 55.4025C80.0599 55.2275 80.2524 55.0625 80.4874 54.9075C80.7224 54.7525 81.0099 54.6175 81.3499 54.5025C81.6949 54.3875 82.0949 54.295 82.5499 54.225C83.0049 54.15 83.5249 54.105 84.1099 54.09V53.64C84.1099 53.125 83.9999 52.745 83.7799 52.5C83.5599 52.25 83.2424 52.125 82.8274 52.125C82.5274 52.125 82.2774 52.16 82.0774 52.23C81.8824 52.3 81.7099 52.38 81.5599 52.47C81.4099 52.555 81.2724 52.6325 81.1474 52.7025C81.0274 52.7725 80.8924 52.8075 80.7424 52.8075C80.6124 52.8075 80.5024 52.775 80.4124 52.71C80.3224 52.64 80.2499 52.56 80.1949 52.47L79.8649 51.8775ZM91.7271 55.215C91.1921 55.24 90.7421 55.2875 90.3771 55.3575C90.0121 55.4225 89.7196 55.5075 89.4996 55.6125C89.2796 55.7175 89.1221 55.84 89.0271 55.98C88.9321 56.12 88.8846 56.2725 88.8846 56.4375C88.8846 56.7625 88.9796 56.995 89.1696 57.135C89.3646 57.275 89.6171 57.345 89.9271 57.345C90.3071 57.345 90.6346 57.2775 90.9096 57.1425C91.1896 57.0025 91.4621 56.7925 91.7271 56.5125V55.215ZM87.4821 51.8775C88.3671 51.0675 89.4321 50.6625 90.6771 50.6625C91.1271 50.6625 91.5296 50.7375 91.8846 50.8875C92.2396 51.0325 92.5396 51.2375 92.7846 51.5025C93.0296 51.7625 93.2146 52.075 93.3396 52.44C93.4696 52.805 93.5346 53.205 93.5346 53.64V58.5H92.6946C92.5196 58.5 92.3846 58.475 92.2896 58.425C92.1946 58.37 92.1196 58.2625 92.0646 58.1025L91.8996 57.5475C91.7046 57.7225 91.5146 57.8775 91.3296 58.0125C91.1446 58.1425 90.9521 58.2525 90.7521 58.3425C90.5521 58.4325 90.3371 58.5 90.1071 58.545C89.8821 58.595 89.6321 58.62 89.3571 58.62C89.0321 58.62 88.7321 58.5775 88.4571 58.4925C88.1821 58.4025 87.9446 58.27 87.7446 58.095C87.5446 57.92 87.3896 57.7025 87.2796 57.4425C87.1696 57.1825 87.1146 56.88 87.1146 56.535C87.1146 56.34 87.1471 56.1475 87.2121 55.9575C87.2771 55.7625 87.3821 55.5775 87.5271 55.4025C87.6771 55.2275 87.8696 55.0625 88.1046 54.9075C88.3396 54.7525 88.6271 54.6175 88.9671 54.5025C89.3121 54.3875 89.7121 54.295 90.1671 54.225C90.6221 54.15 91.1421 54.105 91.7271 54.09V53.64C91.7271 53.125 91.6171 52.745 91.3971 52.5C91.1771 52.25 90.8596 52.125 90.4446 52.125C90.1446 52.125 89.8946 52.16 89.6946 52.23C89.4996 52.3 89.3271 52.38 89.1771 52.47C89.0271 52.555 88.8896 52.6325 88.7646 52.7025C88.6446 52.7725 88.5096 52.8075 88.3596 52.8075C88.2296 52.8075 88.1196 52.775 88.0296 52.71C87.9396 52.64 87.8671 52.56 87.8121 52.47L87.4821 51.8775ZM97.0268 52.14C97.2668 51.68 97.5518 51.32 97.8818 51.06C98.2118 50.795 98.6018 50.6625 99.0518 50.6625C99.4068 50.6625 99.6918 50.74 99.9068 50.895L99.7868 52.2825C99.7618 52.3725 99.7243 52.4375 99.6743 52.4775C99.6293 52.5125 99.5668 52.53 99.4868 52.53C99.4118 52.53 99.2993 52.5175 99.1493 52.4925C99.0043 52.4675 98.8618 52.455 98.7218 52.455C98.5168 52.455 98.3343 52.485 98.1743 52.545C98.0143 52.605 97.8693 52.6925 97.7393 52.8075C97.6143 52.9175 97.5018 53.0525 97.4018 53.2125C97.3068 53.3725 97.2168 53.555 97.1318 53.76V58.5H95.2793V50.805H96.3668C96.5568 50.805 96.6893 50.84 96.7643 50.91C96.8393 50.975 96.8893 51.095 96.9143 51.27L97.0268 52.14ZM103.44 58.62C102.77 58.62 102.255 58.4325 101.895 58.0575C101.54 57.6775 101.362 57.155 101.362 56.49V52.1925H100.575C100.475 52.1925 100.39 52.16 100.32 52.095C100.25 52.03 100.215 51.9325 100.215 51.8025V51.0675L101.452 50.865L101.842 48.765C101.867 48.665 101.915 48.5875 101.985 48.5325C102.055 48.4775 102.145 48.45 102.255 48.45H103.215V50.8725H105.27V52.1925H103.215V56.3625C103.215 56.6025 103.272 56.79 103.387 56.925C103.507 57.06 103.67 57.1275 103.875 57.1275C103.99 57.1275 104.085 57.115 104.16 57.09C104.24 57.06 104.307 57.03 104.362 57C104.422 56.97 104.475 56.9425 104.52 56.9175C104.565 56.8875 104.61 56.8725 104.655 56.8725C104.71 56.8725 104.755 56.8875 104.79 56.9175C104.825 56.9425 104.862 56.9825 104.902 57.0375L105.457 57.9375C105.187 58.1625 104.877 58.3325 104.527 58.4475C104.177 58.5625 103.815 58.62 103.44 58.62ZM108.309 51.63C108.609 51.35 108.939 51.1225 109.299 50.9475C109.659 50.7725 110.081 50.685 110.566 50.685C110.986 50.685 111.359 50.7575 111.684 50.9025C112.009 51.0425 112.279 51.2425 112.494 51.5025C112.714 51.7575 112.879 52.065 112.989 52.425C113.104 52.78 113.161 53.1725 113.161 53.6025V58.5H111.309V53.6025C111.309 53.1325 111.201 52.77 110.986 52.515C110.771 52.255 110.444 52.125 110.004 52.125C109.684 52.125 109.384 52.1975 109.104 52.3425C108.824 52.4875 108.559 52.685 108.309 52.935V58.5H106.456V47.355H108.309V51.63ZM116.843 50.805V58.5H114.983V50.805H116.843ZM117.098 48.5625C117.098 48.7225 117.065 48.8725 117 49.0125C116.935 49.1525 116.848 49.275 116.738 49.38C116.633 49.485 116.508 49.57 116.363 49.635C116.218 49.695 116.063 49.725 115.898 49.725C115.738 49.725 115.585 49.695 115.44 49.635C115.3 49.57 115.178 49.485 115.073 49.38C114.968 49.275 114.883 49.1525 114.818 49.0125C114.758 48.8725 114.728 48.7225 114.728 48.5625C114.728 48.3975 114.758 48.2425 114.818 48.0975C114.883 47.9525 114.968 47.8275 115.073 47.7225C115.178 47.6175 115.3 47.535 115.44 47.475C115.585 47.41 115.738 47.3775 115.898 47.3775C116.063 47.3775 116.218 47.41 116.363 47.475C116.508 47.535 116.633 47.6175 116.738 47.7225C116.848 47.8275 116.935 47.9525 117 48.0975C117.065 48.2425 117.098 48.3975 117.098 48.5625Z" fill="#31322F"/>
</svg>
