<svg id="visual" viewBox="0 0 900 600" width="900" height="600" xmlns="http://www.w3.org/2000/svg" xmlns:xlink="http://www.w3.org/1999/xlink" version="1.1"><path d="M0 7L8.8 9C17.7 11 35.3 15 53 22C70.7 29 88.3 39 106 39C123.7 39 141.3 29 159 25C176.7 21 194.3 23 212 24C229.7 25 247.3 25 265 29C282.7 33 300.3 41 318 47C335.7 53 353.3 57 371 57C388.7 57 406.3 53 423.8 48C441.3 43 458.7 37 476.2 38C493.7 39 511.3 47 529 54C546.7 61 564.3 67 582 64C599.7 61 617.3 49 635 43C652.7 37 670.3 37 688 30.8C705.7 24.7 723.3 12.3 741 15.3C758.7 18.3 776.3 36.7 794 43.8C811.7 51 829.3 47 847 41C864.7 35 882.3 27 891.2 23L900 19L900 0L891.2 0C882.3 0 864.7 0 847 0C829.3 0 811.7 0 794 0C776.3 0 758.7 0 741 0C723.3 0 705.7 0 688 0C670.3 0 652.7 0 635 0C617.3 0 599.7 0 582 0C564.3 0 546.7 0 529 0C511.3 0 493.7 0 476.2 0C458.7 0 441.3 0 423.8 0C406.3 0 388.7 0 371 0C353.3 0 335.7 0 318 0C300.3 0 282.7 0 265 0C247.3 0 229.7 0 212 0C194.3 0 176.7 0 159 0C141.3 0 123.7 0 106 0C88.3 0 70.7 0 53 0C35.3 0 17.7 0 8.8 0L0 0Z" fill="#ff885b"></path><path d="M0 241L8.8 257C17.7 273 35.3 305 53 299C70.7 293 88.3 249 106 223C123.7 197 141.3 189 159 167C176.7 145 194.3 109 212 114C229.7 119 247.3 165 265 170C282.7 175 300.3 139 318 126C335.7 113 353.3 123 371 135C388.7 147 406.3 161 423.8 147C441.3 133 458.7 91 476.2 83C493.7 75 511.3 101 529 112C546.7 123 564.3 119 582 107C599.7 95 617.3 75 635 81C652.7 87 670.3 119 688 131C705.7 143 723.3 135 741 140C758.7 145 776.3 163 794 170C811.7 177 829.3 173 847 160C864.7 147 882.3 125 891.2 114L900 103L900 17L891.2 21C882.3 25 864.7 33 847 39C829.3 45 811.7 49 794 42.2C776.3 35.3 758.7 17.7 741 14.7C723.3 11.7 705.7 23.3 688 29.2C670.3 35 652.7 35 635 41C617.3 47 599.7 59 582 62C564.3 65 546.7 59 529 52C511.3 45 493.7 37 476.2 36C458.7 35 441.3 41 423.8 46C406.3 51 388.7 55 371 55C353.3 55 335.7 51 318 45C300.3 39 282.7 31 265 27C247.3 23 229.7 23 212 22C194.3 21 176.7 19 159 23C141.3 27 123.7 37 106 37C88.3 37 70.7 27 53 20C35.3 13 17.7 9 8.8 7L0 5Z" fill="#f9642f"></path><path d="M0 253L8.8 269C17.7 285 35.3 317 53 313C70.7 309 88.3 269 106 254C123.7 239 141.3 249 159 227C176.7 205 194.3 151 212 150C229.7 149 247.3 201 265 206C282.7 211 300.3 169 318 158C335.7 147 353.3 167 371 179C388.7 191 406.3 195 423.8 177C441.3 159 458.7 119 476.2 113C493.7 107 511.3 135 529 148C546.7 161 564.3 159 582 146C599.7 133 617.3 109 635 115C652.7 121 670.3 157 688 170C705.7 183 723.3 173 741 176C758.7 179 776.3 195 794 197C811.7 199 829.3 187 847 170C864.7 153 882.3 131 891.2 120L900 109L900 101L891.2 112C882.3 123 864.7 145 847 158C829.3 171 811.7 175 794 168C776.3 161 758.7 143 741 138C723.3 133 705.7 141 688 129C670.3 117 652.7 85 635 79C617.3 73 599.7 93 582 105C564.3 117 546.7 121 529 110C511.3 99 493.7 73 476.2 81C458.7 89 441.3 131 423.8 145C406.3 159 388.7 145 371 133C353.3 121 335.7 111 318 124C300.3 137 282.7 173 265 168C247.3 163 229.7 117 212 112C194.3 107 176.7 143 159 165C141.3 187 123.7 195 106 221C88.3 247 70.7 291 53 297C35.3 303 17.7 271 8.8 255L0 239Z" fill="#e44610"></path><path d="M0 319L8.8 338C17.7 357 35.3 395 53 390C70.7 385 88.3 337 106 312C123.7 287 141.3 285 159 254C176.7 223 194.3 163 212 160C229.7 157 247.3 211 265 217C282.7 223 300.3 181 318 186C335.7 191 353.3 243 371 264C388.7 285 406.3 275 423.8 249C441.3 223 458.7 181 476.2 177C493.7 173 511.3 207 529 228C546.7 249 564.3 257 582 244C599.7 231 617.3 197 635 197C652.7 197 670.3 231 688 246C705.7 261 723.3 257 741 256C758.7 255 776.3 257 794 245C811.7 233 829.3 207 847 193C864.7 179 882.3 177 891.2 176L900 175L900 107L891.2 118C882.3 129 864.7 151 847 168C829.3 185 811.7 197 794 195C776.3 193 758.7 177 741 174C723.3 171 705.7 181 688 168C670.3 155 652.7 119 635 113C617.3 107 599.7 131 582 144C564.3 157 546.7 159 529 146C511.3 133 493.7 105 476.2 111C458.7 117 441.3 157 423.8 175C406.3 193 388.7 189 371 177C353.3 165 335.7 145 318 156C300.3 167 282.7 209 265 204C247.3 199 229.7 147 212 148C194.3 149 176.7 203 159 225C141.3 247 123.7 237 106 252C88.3 267 70.7 307 53 311C35.3 315 17.7 283 8.8 267L0 251Z" fill="#bc3811"></path><path d="M0 325L8.8 345C17.7 365 35.3 405 53 422C70.7 439 88.3 433 106 420C123.7 407 141.3 387 159 383C176.7 379 194.3 391 212 407C229.7 423 247.3 443 265 435C282.7 427 300.3 391 318 377C335.7 363 353.3 371 371 365C388.7 359 406.3 339 423.8 330C441.3 321 458.7 323 476.2 342C493.7 361 511.3 397 529 413C546.7 429 564.3 425 582 411C599.7 397 617.3 373 635 357C652.7 341 670.3 333 688 348C705.7 363 723.3 401 741 429C758.7 457 776.3 475 794 465C811.7 455 829.3 417 847 407C864.7 397 882.3 415 891.2 424L900 433L900 173L891.2 174C882.3 175 864.7 177 847 191C829.3 205 811.7 231 794 243C776.3 255 758.7 253 741 254C723.3 255 705.7 259 688 244C670.3 229 652.7 195 635 195C617.3 195 599.7 229 582 242C564.3 255 546.7 247 529 226C511.3 205 493.7 171 476.2 175C458.7 179 441.3 221 423.8 247C406.3 273 388.7 283 371 262C353.3 241 335.7 189 318 184C300.3 179 282.7 221 265 215C247.3 209 229.7 155 212 158C194.3 161 176.7 221 159 252C141.3 283 123.7 285 106 310C88.3 335 70.7 383 53 388C35.3 393 17.7 355 8.8 336L0 317Z" fill="#b43611"></path><path d="M0 397L8.8 406C17.7 415 35.3 433 53 450C70.7 467 88.3 483 106 477C123.7 471 141.3 443 159 434C176.7 425 194.3 435 212 450C229.7 465 247.3 485 265 480C282.7 475 300.3 445 318 424C335.7 403 353.3 391 371 381C388.7 371 406.3 363 423.8 364C441.3 365 458.7 375 476.2 390C493.7 405 511.3 425 529 436C546.7 447 564.3 449 582 442C599.7 435 617.3 419 635 411C652.7 403 670.3 403 688 420C705.7 437 723.3 471 741 487C758.7 503 776.3 501 794 493C811.7 485 829.3 471 847 475C864.7 479 882.3 501 891.2 512L900 523L900 431L891.2 422C882.3 413 864.7 395 847 405C829.3 415 811.7 453 794 463C776.3 473 758.7 455 741 427C723.3 399 705.7 361 688 346C670.3 331 652.7 339 635 355C617.3 371 599.7 395 582 409C564.3 423 546.7 427 529 411C511.3 395 493.7 359 476.2 340C458.7 321 441.3 319 423.8 328C406.3 337 388.7 357 371 363C353.3 369 335.7 361 318 375C300.3 389 282.7 425 265 433C247.3 441 229.7 421 212 405C194.3 389 176.7 377 159 381C141.3 385 123.7 405 106 418C88.3 431 70.7 437 53 420C35.3 403 17.7 363 8.8 343L0 323Z" fill="#bc3811"></path><path d="M0 445L8.8 446C17.7 447 35.3 449 53 466C70.7 483 88.3 515 106 510C123.7 505 141.3 463 159 455C176.7 447 194.3 473 212 492C229.7 511 247.3 523 265 517C282.7 511 300.3 487 318 465C335.7 443 353.3 423 371 415C388.7 407 406.3 411 423.8 418C441.3 425 458.7 435 476.2 449C493.7 463 511.3 481 529 482C546.7 483 564.3 467 582 454C599.7 441 617.3 431 635 430C652.7 429 670.3 437 688 454C705.7 471 723.3 497 741 508C758.7 519 776.3 515 794 513C811.7 511 829.3 511 847 513C864.7 515 882.3 519 891.2 521L900 523L900 521L891.2 510C882.3 499 864.7 477 847 473C829.3 469 811.7 483 794 491C776.3 499 758.7 501 741 485C723.3 469 705.7 435 688 418C670.3 401 652.7 401 635 409C617.3 417 599.7 433 582 440C564.3 447 546.7 445 529 434C511.3 423 493.7 403 476.2 388C458.7 373 441.3 363 423.8 362C406.3 361 388.7 369 371 379C353.3 389 335.7 401 318 422C300.3 443 282.7 473 265 478C247.3 483 229.7 463 212 448C194.3 433 176.7 423 159 432C141.3 441 123.7 469 106 475C88.3 481 70.7 465 53 448C35.3 431 17.7 413 8.8 404L0 395Z" fill="#e44610"></path><path d="M0 469L8.8 475C17.7 481 35.3 493 53 511C70.7 529 88.3 553 106 552C123.7 551 141.3 525 159 519C176.7 513 194.3 527 212 539C229.7 551 247.3 561 265 554C282.7 547 300.3 523 318 508C335.7 493 353.3 487 371 487C388.7 487 406.3 493 423.8 501C441.3 509 458.7 519 476.2 528C493.7 537 511.3 545 529 539C546.7 533 564.3 513 582 505C599.7 497 617.3 501 635 498C652.7 495 670.3 485 688 499C705.7 513 723.3 551 741 560C758.7 569 776.3 549 794 544C811.7 539 829.3 549 847 549C864.7 549 882.3 539 891.2 534L900 529L900 521L891.2 519C882.3 517 864.7 513 847 511C829.3 509 811.7 509 794 511C776.3 513 758.7 517 741 506C723.3 495 705.7 469 688 452C670.3 435 652.7 427 635 428C617.3 429 599.7 439 582 452C564.3 465 546.7 481 529 480C511.3 479 493.7 461 476.2 447C458.7 433 441.3 423 423.8 416C406.3 409 388.7 405 371 413C353.3 421 335.7 441 318 463C300.3 485 282.7 509 265 515C247.3 521 229.7 509 212 490C194.3 471 176.7 445 159 453C141.3 461 123.7 503 106 508C88.3 513 70.7 481 53 464C35.3 447 17.7 445 8.8 444L0 443Z" fill="#f9642f"></path><path d="M0 601L8.8 601C17.7 601 35.3 601 53 601C70.7 601 88.3 601 106 601C123.7 601 141.3 601 159 601C176.7 601 194.3 601 212 601C229.7 601 247.3 601 265 601C282.7 601 300.3 601 318 601C335.7 601 353.3 601 371 601C388.7 601 406.3 601 423.8 601C441.3 601 458.7 601 476.2 601C493.7 601 511.3 601 529 601C546.7 601 564.3 601 582 601C599.7 601 617.3 601 635 601C652.7 601 670.3 601 688 601C705.7 601 723.3 601 741 601C758.7 601 776.3 601 794 601C811.7 601 829.3 601 847 601C864.7 601 882.3 601 891.2 601L900 601L900 527L891.2 532C882.3 537 864.7 547 847 547C829.3 547 811.7 537 794 542C776.3 547 758.7 567 741 558C723.3 549 705.7 511 688 497C670.3 483 652.7 493 635 496C617.3 499 599.7 495 582 503C564.3 511 546.7 531 529 537C511.3 543 493.7 535 476.2 526C458.7 517 441.3 507 423.8 499C406.3 491 388.7 485 371 485C353.3 485 335.7 491 318 506C300.3 521 282.7 545 265 552C247.3 559 229.7 549 212 537C194.3 525 176.7 511 159 517C141.3 523 123.7 549 106 550C88.3 551 70.7 527 53 509C35.3 491 17.7 479 8.8 473L0 467Z" fill="#ff885b"></path></svg>